# Blender v2.90.1 OBJ File: ''
# www.blender.org
mtllib ranged_cube_h_67.18cm_w_320cm-with-ceiling.mtl
o 4sides-1ceiling-nobottom(w:320cm_/_h67.18cm)_Cube.001
v -1.600000 0.000000 -1.600000
v -1.600000 -0.000000 1.600000
v -1.600000 0.671800 -1.600000
v -1.600000 0.671800 1.600000
v 1.600000 0.000000 -1.600000
v 1.600000 -0.000000 1.600000
v 1.600000 0.671800 -1.600000
v 1.600000 0.671800 1.600000
vt 0.375000 0.000000
vt 0.625000 0.000000
vt 0.625000 0.250000
vt 0.375000 0.250000
vt 0.625000 0.500000
vt 0.375000 0.500000
vt 0.625000 0.750000
vt 0.375000 0.750000
vt 0.125000 0.500000
vt 0.125000 0.750000
vt 0.875000 0.500000
vt 0.875000 0.750000
vn -1.0000 0.0000 0.0000
vn 0.0000 1.0000 0.0000
vn 1.0000 0.0000 0.0000
vn 0.0000 0.0000 -1.0000
vn 0.0000 0.0000 1.0000
usemtl None
s off
f 1/1/1 2/2/1 4/3/1 3/4/1
f 3/4/2 4/3/2 8/5/2 7/6/2
f 7/6/3 8/5/3 6/7/3 5/8/3
f 3/9/4 7/6/4 5/8/4 1/10/4
f 8/5/5 4/11/5 2/12/5 6/7/5
